<svg width="110" height="42" viewBox="0 0 110 42" fill="none" xmlns="http://www.w3.org/2000/svg">
<path d="M2.964 37.172C4.18 37.172 4.788 36.756 4.788 35.924C4.788 35.668 4.732 35.452 4.62 35.276C4.516 35.092 4.372 34.936 4.188 34.808C4.004 34.672 3.792 34.556 3.552 34.46C3.32 34.364 3.072 34.268 2.808 34.172C2.504 34.068 2.216 33.952 1.944 33.824C1.672 33.688 1.436 33.532 1.236 33.356C1.036 33.172 0.876 32.956 0.756 32.708C0.644 32.46 0.588 32.16 0.588 31.808C0.588 31.08 0.836 30.512 1.332 30.104C1.828 29.696 2.512 29.492 3.384 29.492C3.888 29.492 4.344 29.548 4.752 29.66C5.168 29.764 5.472 29.88 5.664 30.008L5.292 30.956C5.124 30.852 4.872 30.752 4.536 30.656C4.208 30.552 3.824 30.5 3.384 30.5C3.16 30.5 2.952 30.524 2.76 30.572C2.568 30.62 2.4 30.692 2.256 30.788C2.112 30.884 1.996 31.008 1.908 31.16C1.828 31.304 1.788 31.476 1.788 31.676C1.788 31.9 1.832 32.088 1.92 32.24C2.008 32.392 2.132 32.528 2.292 32.648C2.452 32.76 2.636 32.864 2.844 32.96C3.06 33.056 3.296 33.152 3.552 33.248C3.912 33.392 4.24 33.536 4.536 33.68C4.84 33.824 5.1 33.996 5.316 34.196C5.54 34.396 5.712 34.636 5.832 34.916C5.952 35.188 6.012 35.52 6.012 35.912C6.012 36.64 5.744 37.2 5.208 37.592C4.68 37.984 3.932 38.18 2.964 38.18C2.636 38.18 2.332 38.156 2.052 38.108C1.78 38.068 1.536 38.02 1.32 37.964C1.104 37.9 0.916 37.836 0.756 37.772C0.604 37.7 0.484 37.64 0.396 37.592L0.744 36.632C0.928 36.736 1.208 36.852 1.584 36.98C1.96 37.108 2.42 37.172 2.964 37.172ZM26.7147 29.684V30.692H24.0987V38H22.9347V30.692H20.3187V29.684H26.7147ZM44.7799 38.18C44.2359 38.18 43.7639 38.096 43.3639 37.928C42.9639 37.76 42.6359 37.532 42.3799 37.244C42.1239 36.948 41.9319 36.6 41.8039 36.2C41.6839 35.8 41.6239 35.368 41.6239 34.904V29.684H42.7879V34.772C42.7879 35.604 42.9719 36.208 43.3399 36.584C43.7079 36.96 44.1879 37.148 44.7799 37.148C45.0759 37.148 45.3439 37.104 45.5839 37.016C45.8319 36.92 46.0439 36.776 46.2199 36.584C46.3959 36.392 46.5319 36.148 46.6279 35.852C46.7239 35.548 46.7719 35.188 46.7719 34.772V29.684H47.9359V34.904C47.9359 35.368 47.8719 35.8 47.7439 36.2C47.6239 36.6 47.4319 36.948 47.1679 37.244C46.9119 37.532 46.5839 37.76 46.1839 37.928C45.7919 38.096 45.3239 38.18 44.7799 38.18ZM70.5136 33.836C70.5136 34.556 70.4016 35.184 70.1776 35.72C69.9536 36.248 69.6376 36.688 69.2296 37.04C68.8216 37.384 68.3336 37.644 67.7656 37.82C67.1976 37.988 66.5736 38.072 65.8936 38.072C65.5576 38.072 65.1856 38.056 64.7776 38.024C64.3776 38 64.0136 37.948 63.6856 37.868V29.804C64.0136 29.724 64.3776 29.672 64.7776 29.648C65.1856 29.616 65.5576 29.6 65.8936 29.6C66.5736 29.6 67.1976 29.688 67.7656 29.864C68.3336 30.032 68.8216 30.292 69.2296 30.644C69.6376 30.988 69.9536 31.428 70.1776 31.964C70.4016 32.492 70.5136 33.116 70.5136 33.836ZM65.9896 37.052C67.0936 37.052 67.9176 36.772 68.4616 36.212C69.0056 35.644 69.2776 34.852 69.2776 33.836C69.2776 32.82 69.0056 32.032 68.4616 31.472C67.9176 30.904 67.0936 30.62 65.9896 30.62C65.6616 30.62 65.4056 30.624 65.2216 30.632C65.0456 30.64 64.9216 30.648 64.8496 30.656V37.016C64.9216 37.024 65.0456 37.032 65.2216 37.04C65.4056 37.048 65.6616 37.052 65.9896 37.052ZM85.9803 29.684H87.1443V38H85.9803V29.684ZM108.499 38C108.363 37.64 108.235 37.288 108.115 36.944C107.995 36.592 107.871 36.236 107.743 35.876H103.975L103.219 38H102.007C102.327 37.12 102.627 36.308 102.907 35.564C103.187 34.812 103.459 34.1 103.723 33.428C103.995 32.756 104.263 32.116 104.527 31.508C104.791 30.892 105.067 30.284 105.355 29.684H106.423C106.711 30.284 106.987 30.892 107.251 31.508C107.515 32.116 107.779 32.756 108.043 33.428C108.315 34.1 108.591 34.812 108.871 35.564C109.151 36.308 109.451 37.12 109.771 38H108.499ZM107.407 34.916C107.151 34.22 106.895 33.548 106.639 32.9C106.391 32.244 106.131 31.616 105.859 31.016C105.579 31.616 105.311 32.244 105.055 32.9C104.807 33.548 104.559 34.22 104.311 34.916H107.407Z" fill="white"/>
<path d="M18.76 6.98C20.8267 6.98 22.4133 7.34667 23.52 8.08C24.6267 8.8 25.18 9.98667 25.18 11.64C25.18 13.3067 24.62 14.5133 23.5 15.26C22.38 15.9933 20.78 16.36 18.7 16.36H17.72V21H14.6V7.34C15.28 7.20667 16 7.11333 16.76 7.06C17.52 7.00667 18.1867 6.98 18.76 6.98ZM18.96 9.64C18.7333 9.64 18.5067 9.64667 18.28 9.66C18.0667 9.67333 17.88 9.68667 17.72 9.7V13.7H18.7C19.78 13.7 20.5933 13.5533 21.14 13.26C21.6867 12.9667 21.96 12.42 21.96 11.62C21.96 11.2333 21.8867 10.9133 21.74 10.66C21.6067 10.4067 21.4067 10.2067 21.14 10.06C20.8867 9.9 20.5733 9.79333 20.2 9.74C19.8267 9.67333 19.4133 9.64 18.96 9.64ZM36.7311 18.32V21H27.4711V7.14H30.5911V18.32H36.7311ZM48.6456 21C48.499 20.52 48.3323 20.0267 48.1456 19.52C47.9723 19.0133 47.799 18.5067 47.6256 18H42.2256C42.0523 18.5067 41.8723 19.0133 41.6856 19.52C41.5123 20.0267 41.3523 20.52 41.2056 21H37.9656C38.4856 19.5067 38.979 18.1267 39.4456 16.86C39.9123 15.5933 40.3656 14.4 40.8056 13.28C41.259 12.16 41.699 11.1 42.1256 10.1C42.5656 9.08667 43.019 8.1 43.4856 7.14H46.4656C46.919 8.1 47.3656 9.08667 47.8056 10.1C48.2456 11.1 48.6856 12.16 49.1256 13.28C49.579 14.4 50.039 15.5933 50.5056 16.86C50.9723 18.1267 51.4656 19.5067 51.9856 21H48.6456ZM44.9056 10.28C44.839 10.48 44.739 10.7533 44.6056 11.1C44.4723 11.4467 44.319 11.8467 44.1456 12.3C43.9723 12.7533 43.779 13.2533 43.5656 13.8C43.3656 14.3467 43.159 14.92 42.9456 15.52H46.8856C46.6723 14.92 46.4656 14.3467 46.2656 13.8C46.0656 13.2533 45.8723 12.7533 45.6856 12.3C45.5123 11.8467 45.359 11.4467 45.2256 11.1C45.0923 10.7533 44.9856 10.48 44.9056 10.28ZM56.8675 12.84C57.4275 11.8933 57.9608 10.9467 58.4675 10C58.9742 9.05333 59.4408 8.1 59.8675 7.14H63.3075C62.5475 8.63333 61.7608 10.08 60.9475 11.48C60.1342 12.88 59.2742 14.2867 58.3675 15.7V21H55.2475V15.74C54.3408 14.3267 53.4742 12.9133 52.6475 11.5C51.8342 10.0867 51.0475 8.63333 50.2875 7.14H53.9075C54.3342 8.1 54.7942 9.05333 55.2875 10C55.7808 10.9467 56.3075 11.8933 56.8675 12.84ZM68.3972 7.14C68.6372 7.58 68.9105 8.12667 69.2172 8.78C69.5372 9.42 69.8639 10.12 70.1972 10.88C70.5439 11.6267 70.8839 12.3933 71.2172 13.18C71.5505 13.9667 71.8639 14.7067 72.1572 15.4C72.4505 14.7067 72.7639 13.9667 73.0972 13.18C73.4305 12.3933 73.7639 11.6267 74.0972 10.88C74.4439 10.12 74.7705 9.42 75.0772 8.78C75.3972 8.12667 75.6772 7.58 75.9172 7.14H78.7572C78.8905 8.06 79.0105 9.09333 79.1172 10.24C79.2372 11.3733 79.3372 12.56 79.4172 13.8C79.5105 15.0267 79.5905 16.26 79.6572 17.5C79.7372 18.74 79.8039 19.9067 79.8572 21H76.8172C76.7772 19.6533 76.7239 18.1867 76.6572 16.6C76.5905 15.0133 76.4905 13.4133 76.3572 11.8C76.1172 12.36 75.8505 12.98 75.5572 13.66C75.2639 14.34 74.9705 15.02 74.6772 15.7C74.3972 16.38 74.1239 17.0333 73.8572 17.66C73.5905 18.2733 73.3639 18.8 73.1772 19.24H70.9972C70.8105 18.8 70.5839 18.2733 70.3172 17.66C70.0505 17.0333 69.7705 16.38 69.4772 15.7C69.1972 15.02 68.9105 14.34 68.6172 13.66C68.3239 12.98 68.0572 12.36 67.8172 11.8C67.6839 13.4133 67.5839 15.0133 67.5172 16.6C67.4505 18.1867 67.3972 19.6533 67.3572 21H64.3172C64.3705 19.9067 64.4305 18.74 64.4972 17.5C64.5772 16.26 64.6572 15.0267 64.7372 13.8C64.8305 12.56 64.9305 11.3733 65.0372 10.24C65.1572 9.09333 65.2839 8.06 65.4172 7.14H68.3972ZM82.6664 21V7.14H92.0264V9.76H85.7864V12.48H91.3264V15.04H85.7864V18.38H92.4864V21H82.6664Z" fill="white"/>
</svg>
